# Blender v3.0.1 OBJ File: '3d_glasses.blend'
# www.blender.org
mtllib DemoGlasses.mtl
o 3d_glasses_Plane
v 0.000000 -0.042725 -0.000000
v 0.227997 -0.182680 -0.000000
v 0.000000 1.000000 0.000000
v 0.227997 1.000000 0.000000
v 0.731508 -0.602919 -0.000000
v 0.731508 1.000000 0.000000
v 0.527879 -0.495837 -0.000000
v 0.527879 1.000000 0.000000
v 2.696686 -0.602919 -0.000000
v 2.696686 1.000000 0.000000
v 2.914567 -0.323567 -0.000000
v 2.914567 1.000000 0.000000
v 3.089465 -0.323567 -0.000000
v 3.089465 1.000000 0.000000
v 2.493728 -0.602919 -0.000000
v 2.493728 1.000000 0.000000
v 0.731508 -0.291455 -0.000000
v 0.731508 0.688537 0.000000
v 2.493728 -0.291455 -0.000000
v 2.493728 0.688537 0.000000
v 3.089465 -0.323567 -1.232896
v 3.089465 1.000000 -1.232896
v 3.089465 0.487465 -2.553507
v 3.089465 1.000000 -2.553507
v 3.089465 0.487465 -5.005925
v 3.089465 1.000000 -5.005925
v 3.089465 0.487465 -6.432612
v 3.089465 0.831114 -6.227368
v 3.089465 -0.148288 -5.265598
v 3.089465 -0.128764 -6.332720
v 3.089465 0.487465 -5.743555
v 3.089465 1.000000 -5.743555
v 3.089465 -0.249421 -5.743555
v 3.089465 0.302469 -5.141935
v 3.089465 0.067656 -5.171221
v 3.089466 -0.225016 -5.439336
v 3.089465 0.077418 -6.422850
v 3.089466 -0.215253 -6.129377
v 3.089465 0.944910 -6.061005
v 3.089465 0.677697 -6.342483
v -0.227997 -0.182680 -0.000000
v -0.227997 1.000000 0.000000
v -0.731508 -0.602919 -0.000000
v -0.731508 1.000000 0.000000
v -0.527879 -0.495837 -0.000000
v -0.527879 1.000000 0.000000
v -2.696686 -0.602919 -0.000000
v -2.696686 1.000000 0.000000
v -2.914567 -0.323567 -0.000000
v -2.914567 1.000000 0.000000
v -3.089465 -0.323567 -0.000000
v -3.089465 1.000000 0.000000
v -2.493728 -0.602919 -0.000000
v -2.493728 1.000000 0.000000
v -0.731508 -0.291455 -0.000000
v -0.731508 0.688537 0.000000
v -2.493728 -0.291455 -0.000000
v -2.493728 0.688537 0.000000
v -3.089465 -0.323567 -1.232896
v -3.089465 1.000000 -1.232896
v -3.089465 0.487465 -2.553507
v -3.089465 1.000000 -2.553507
v -3.089465 0.487465 -5.005925
v -3.089465 1.000000 -5.005925
v -3.089465 0.487465 -6.432612
v -3.089465 0.831114 -6.227368
v -3.089465 -0.148288 -5.265598
v -3.089465 -0.128764 -6.332720
v -3.089465 0.487465 -5.743555
v -3.089465 1.000000 -5.743555
v -3.089465 -0.249421 -5.743555
v -3.089465 0.302469 -5.141935
v -3.089465 0.067656 -5.171221
v -3.089466 -0.225016 -5.439336
v -3.089465 0.077418 -6.422850
v -3.089466 -0.215253 -6.129377
v -3.089465 0.944910 -6.061005
v -3.089465 0.677697 -6.342483
v 0.000000 -0.042725 -0.050000
v 0.227997 -0.182680 -0.050000
v 0.000000 1.000000 -0.050000
v 0.227997 1.000000 -0.050000
v 0.731508 -0.602919 -0.050000
v 0.731508 1.000000 -0.050000
v 0.527879 -0.495837 -0.050000
v 0.527879 1.000000 -0.049998
v 2.696686 -0.602919 -0.050000
v 2.696686 1.000000 -0.050000
v 2.914567 -0.323567 -0.050000
v 2.914567 1.000000 -0.050000
v 3.054111 -0.323567 -0.035354
v 3.054111 1.000000 -0.035354
v 2.493728 -0.602919 -0.050000
v 2.493728 1.000000 -0.050000
v 0.731508 -0.291455 -0.050000
v 0.731508 0.688537 -0.050000
v 2.493728 -0.291455 -0.050000
v 2.493728 0.688537 -0.050000
v 3.039465 -0.323567 -1.232896
v 3.039465 1.000000 -1.232896
v 3.039467 0.487465 -2.553507
v 3.039465 1.000000 -2.553507
v 3.039465 0.487465 -5.005925
v 3.039465 1.000000 -5.005925
v 3.039467 0.487465 -6.432612
v 3.039465 0.831114 -6.227368
v 3.039465 -0.148288 -5.265598
v 3.039465 -0.128764 -6.332720
v 3.039467 0.487465 -5.743555
v 3.039465 1.000000 -5.743555
v 3.039465 -0.249421 -5.743555
v 3.039467 0.302469 -5.141935
v 3.039465 0.067656 -5.171221
v 3.039467 -0.225016 -5.439336
v 3.039467 0.077418 -6.422850
v 3.039466 -0.215253 -6.129377
v 3.039465 0.944910 -6.061005
v 3.039467 0.677697 -6.342483
v -0.227997 -0.182680 -0.050000
v -0.227997 1.000000 -0.050000
v -0.731508 -0.602919 -0.050000
v -0.731508 1.000000 -0.050000
v -0.527879 -0.495837 -0.050000
v -0.527879 1.000000 -0.049998
v -2.696686 -0.602919 -0.050000
v -2.696686 1.000000 -0.050000
v -2.914567 -0.323567 -0.050000
v -2.914567 1.000000 -0.050000
v -3.054111 -0.323567 -0.035354
v -3.054111 1.000000 -0.035354
v -2.493728 -0.602919 -0.050000
v -2.493728 1.000000 -0.050000
v -0.731508 -0.291455 -0.050000
v -0.731508 0.688537 -0.050000
v -2.493728 -0.291455 -0.050000
v -2.493728 0.688537 -0.050000
v -3.039465 -0.323567 -1.232896
v -3.039465 1.000000 -1.232896
v -3.039467 0.487465 -2.553507
v -3.039465 1.000000 -2.553507
v -3.039465 0.487465 -5.005925
v -3.039465 1.000000 -5.005925
v -3.039467 0.487465 -6.432612
v -3.039465 0.831114 -6.227368
v -3.039465 -0.148288 -5.265598
v -3.039465 -0.128764 -6.332720
v -3.039467 0.487465 -5.743555
v -3.039465 1.000000 -5.743555
v -3.039465 -0.249421 -5.743555
v -3.039467 0.302469 -5.141935
v -3.039465 0.067656 -5.171221
v -3.039467 -0.225016 -5.439336
v -3.039467 0.077418 -6.422850
v -3.039466 -0.215253 -6.129377
v -3.039465 0.944910 -6.061005
v -3.039467 0.677697 -6.342483
vt 0.000000 0.000000
vt 0.588235 0.000000
vt 0.588235 1.000000
vt 0.000000 1.000000
vt 0.738052 1.000000
vt 0.738052 0.000000
vt 1.000000 0.333333
vt 1.000000 0.666667
vt 1.000000 1.000000
vt 1.000000 0.666667
vt 1.000000 1.000000
vt 1.000000 0.000000
vt 1.000000 0.000000
vt 1.000000 1.000000
vt 1.000000 0.000000
vt 1.000000 1.000000
vt 1.000000 0.000000
vt 1.000000 0.000000
vt 1.000000 0.333333
vt 1.000000 1.000000
vt 1.000000 0.000000
vt 1.000000 1.000000
vt 1.000000 0.000000
vt 1.000000 1.000000
vt 1.000000 0.000000
vt 1.000000 1.000000
vt 1.000000 1.000000
vt 1.000000 0.000000
vt 1.000000 1.000000
vt 1.000000 0.000000
vt 1.000000 0.000000
vt 1.000000 0.000000
vt 1.000000 0.000000
vt 1.000000 0.000000
vt 1.000000 0.000000
vt 1.000000 0.000000
vt 1.000000 0.000000
vt 1.000000 0.000000
vt 1.000000 0.526635
vt 1.000000 1.000000
vt 0.588235 1.000000
vt 0.588235 0.000000
vt 0.738052 1.000000
vt 1.000000 0.666667
vt 1.000000 0.333333
vt 0.738052 0.000000
vt 1.000000 1.000000
vt 1.000000 1.000000
vt 1.000000 0.666667
vt 1.000000 1.000000
vt 1.000000 0.000000
vt 1.000000 0.000000
vt 1.000000 1.000000
vt 1.000000 0.000000
vt 1.000000 0.333333
vt 1.000000 0.000000
vt 1.000000 0.000000
vt 1.000000 1.000000
vt 1.000000 1.000000
vt 1.000000 0.000000
vt 1.000000 1.000000
vt 1.000000 0.000000
vt 1.000000 1.000000
vt 1.000000 0.000000
vt 1.000000 1.000000
vt 1.000000 1.000000
vt 1.000000 0.000000
vt 1.000000 0.000000
vt 1.000000 0.000000
vt 1.000000 0.000000
vt 1.000000 0.000000
vt 1.000000 0.000000
vt 1.000000 0.000000
vt 1.000000 0.000000
vt 1.000000 0.000000
vt 1.000000 0.000000
vt 1.000000 1.000000
vt 1.000000 0.526635
vt 0.000000 0.000000
vt 0.000000 1.000000
vt 0.588235 1.000000
vt 0.588235 0.000000
vt 0.738052 1.000000
vt 1.000000 0.666667
vt 1.000000 0.333333
vt 0.738052 0.000000
vt 1.000000 1.000000
vt 1.000000 1.000000
vt 1.000000 0.666667
vt 1.000000 1.000000
vt 1.000000 0.000000
vt 1.000000 0.000000
vt 1.000000 1.000000
vt 1.000000 0.000000
vt 1.000000 0.333333
vt 1.000000 0.000000
vt 1.000000 0.000000
vt 1.000000 1.000000
vt 1.000000 1.000000
vt 1.000000 0.000000
vt 1.000000 1.000000
vt 1.000000 0.000000
vt 1.000000 1.000000
vt 1.000000 0.000000
vt 1.000000 1.000000
vt 1.000000 1.000000
vt 1.000000 0.000000
vt 1.000000 0.000000
vt 1.000000 0.000000
vt 1.000000 0.000000
vt 1.000000 0.000000
vt 1.000000 0.000000
vt 1.000000 0.000000
vt 1.000000 0.000000
vt 1.000000 0.000000
vt 1.000000 0.000000
vt 1.000000 1.000000
vt 1.000000 0.526635
vt 0.588235 0.000000
vt 0.588235 1.000000
vt 0.738052 1.000000
vt 0.738052 0.000000
vt 1.000000 0.333333
vt 1.000000 0.666667
vt 1.000000 1.000000
vt 1.000000 0.666667
vt 1.000000 1.000000
vt 1.000000 0.000000
vt 1.000000 0.000000
vt 1.000000 1.000000
vt 1.000000 0.000000
vt 1.000000 1.000000
vt 1.000000 0.000000
vt 1.000000 0.000000
vt 1.000000 0.333333
vt 1.000000 1.000000
vt 1.000000 0.000000
vt 1.000000 1.000000
vt 1.000000 0.000000
vt 1.000000 1.000000
vt 1.000000 0.000000
vt 1.000000 1.000000
vt 1.000000 1.000000
vt 1.000000 0.000000
vt 1.000000 1.000000
vt 1.000000 0.000000
vt 1.000000 0.000000
vt 1.000000 0.000000
vt 1.000000 0.000000
vt 1.000000 0.000000
vt 1.000000 0.000000
vt 1.000000 0.000000
vt 1.000000 0.000000
vt 1.000000 0.000000
vt 1.000000 0.526635
vt 1.000000 1.000000
vn -0.0000 -0.0000 1.0000
vn 1.0000 0.0000 0.0000
vn -1.0000 0.0000 0.0000
vn 0.0000 0.0000 -1.0000
vn 0.1044 0.0000 -0.9945
vn -0.9999 0.0000 0.0122
vn -0.1044 0.0000 -0.9945
vn 0.9999 0.0000 0.0122
vn -0.5231 -0.8522 0.0000
vn 0.0000 1.0000 0.0000
vn -0.4654 -0.8851 0.0000
vn -0.7222 -0.6916 0.0000
vn 0.0000 -1.0000 0.0000
vn 0.7885 -0.6150 0.0000
vn 0.0000 -0.8521 -0.5233
vn 0.0000 0.6002 -0.7999
vn 0.0000 -0.9202 -0.3914
vn 0.0000 -0.4005 0.9163
vn 0.0000 -0.0238 -0.9997
vn 0.0000 0.9853 -0.1710
vn 0.0000 -0.9968 0.0800
vn 0.0000 -0.5923 0.8057
vn 0.0000 -0.1238 0.9923
vn 0.0000 -0.9148 0.4040
vn 0.0000 -0.4005 -0.9163
vn 0.0000 -0.9961 -0.0882
vn 0.0000 0.8254 -0.5646
vn 0.0000 0.4282 -0.9037
vn 0.5231 -0.8522 0.0000
vn 0.4654 -0.8851 0.0000
vn 0.7222 -0.6916 0.0000
vn -0.7885 -0.6150 0.0000
usemtl 3d_glasses
s off
f 1/1/1 2/2/1 4/3/1 3/4/1
f 8/5/1 7/6/1 17/7/1 18/8/1
f 4/3/1 2/2/1 7/6/1 8/5/1
f 16/9/1 20/10/1 10/11/1
f 10/11/1 9/12/1 11/13/1 12/14/1
f 12/14/1 11/13/1 13/15/1 14/16/1
f 17/7/1 5/17/1 15/18/1 19/19/1
f 6/20/1 18/8/1 20/10/1 16/9/1
f 17/7/1 7/6/1 5/17/1
f 18/8/1 6/20/1 8/5/1
f 10/11/1 20/10/1 19/19/1 9/12/1
f 9/12/1 19/19/1 15/18/1
f 14/16/2 13/15/2 21/21/2 22/22/2
f 22/22/2 21/21/2 23/23/2 24/24/2
f 24/24/2 23/23/2 25/25/2 26/26/2
f 32/27/2 31/28/2 39/29/2
f 31/28/2 34/30/2 35/31/2
f 27/32/2 31/28/2 37/33/2
f 26/26/2 25/25/2 31/28/2 32/27/2
f 34/30/2 31/28/2 25/25/2
f 35/31/2 29/34/2 36/35/2 31/28/2
f 31/28/2 36/35/2 33/36/2
f 37/33/2 31/28/2 38/37/2 30/38/2
f 38/37/2 31/28/2 33/36/2
f 39/29/2 31/28/2 40/39/2 28/40/2
f 40/39/2 31/28/2 27/32/2
f 1/1/1 3/4/1 42/41/1 41/42/1
f 46/43/1 56/44/1 55/45/1 45/46/1
f 42/41/1 46/43/1 45/46/1 41/42/1
f 54/47/1 48/48/1 58/49/1
f 48/48/1 50/50/1 49/51/1 47/52/1
f 50/50/1 52/53/1 51/54/1 49/51/1
f 55/45/1 57/55/1 53/56/1 43/57/1
f 44/58/1 54/47/1 58/49/1 56/44/1
f 55/45/1 43/57/1 45/46/1
f 56/44/1 46/43/1 44/58/1
f 48/48/1 47/52/1 57/55/1 58/49/1
f 47/52/1 53/56/1 57/55/1
f 52/53/3 60/59/3 59/60/3 51/54/3
f 60/59/3 62/61/3 61/62/3 59/60/3
f 62/61/3 64/63/3 63/64/3 61/62/3
f 70/65/3 77/66/3 69/67/3
f 69/67/3 73/68/3 72/69/3
f 65/70/3 75/71/3 69/67/3
f 64/63/3 70/65/3 69/67/3 63/64/3
f 72/69/3 63/64/3 69/67/3
f 73/68/3 69/67/3 74/72/3 67/73/3
f 69/67/3 71/74/3 74/72/3
f 75/71/3 68/75/3 76/76/3 69/67/3
f 76/76/3 71/74/3 69/67/3
f 77/66/3 66/77/3 78/78/3 69/67/3
f 78/78/3 65/70/3 69/67/3
f 79/79/4 81/80/4 82/81/4 80/82/4
f 86/83/4 96/84/4 95/85/4 85/86/4
f 82/81/4 86/83/4 85/86/4 80/82/4
f 94/87/4 88/88/4 98/89/4
f 88/88/4 90/90/4 89/91/4 87/92/4
f 90/90/5 92/93/5 91/94/5 89/91/5
f 95/85/4 97/95/4 93/96/4 83/97/4
f 84/98/4 94/87/4 98/89/4 96/84/4
f 95/85/4 83/97/4 85/86/4
f 96/84/4 86/83/4 84/98/4
f 88/88/4 87/92/4 97/95/4 98/89/4
f 87/92/4 93/96/4 97/95/4
f 92/93/6 100/99/6 99/100/6 91/94/6
f 100/99/3 102/101/3 101/102/3 99/100/3
f 102/101/3 104/103/3 103/104/3 101/102/3
f 110/105/3 117/106/3 109/107/3
f 109/107/3 113/108/3 112/109/3
f 105/110/3 115/111/3 109/107/3
f 104/103/3 110/105/3 109/107/3 103/104/3
f 112/109/3 103/104/3 109/107/3
f 113/108/3 109/107/3 114/112/3 107/113/3
f 109/107/3 111/114/3 114/112/3
f 115/111/3 108/115/3 116/116/3 109/107/3
f 116/116/3 111/114/3 109/107/3
f 117/106/3 106/117/3 118/118/3 109/107/3
f 118/118/3 105/110/3 109/107/3
f 79/79/4 119/119/4 120/120/4 81/80/4
f 124/121/4 123/122/4 133/123/4 134/124/4
f 120/120/4 119/119/4 123/122/4 124/121/4
f 132/125/4 136/126/4 126/127/4
f 126/127/4 125/128/4 127/129/4 128/130/4
f 128/130/7 127/129/7 129/131/7 130/132/7
f 133/123/4 121/133/4 131/134/4 135/135/4
f 122/136/4 134/124/4 136/126/4 132/125/4
f 133/123/4 123/122/4 121/133/4
f 134/124/4 122/136/4 124/121/4
f 126/127/4 136/126/4 135/135/4 125/128/4
f 125/128/4 135/135/4 131/134/4
f 130/132/8 129/131/8 137/137/8 138/138/8
f 138/138/2 137/137/2 139/139/2 140/140/2
f 140/140/2 139/139/2 141/141/2 142/142/2
f 148/143/2 147/144/2 155/145/2
f 147/144/2 150/146/2 151/147/2
f 143/148/2 147/144/2 153/149/2
f 142/142/2 141/141/2 147/144/2 148/143/2
f 150/146/2 147/144/2 141/141/2
f 151/147/2 145/150/2 152/151/2 147/144/2
f 147/144/2 152/151/2 149/152/2
f 153/149/2 147/144/2 154/153/2 146/154/2
f 154/153/2 147/144/2 149/152/2
f 155/145/2 147/144/2 156/155/2 144/156/2
f 156/155/2 147/144/2 143/148/2
f 2/2/9 1/1/9 79/79/9 80/82/9
f 3/4/10 4/3/10 82/81/10 81/80/10
f 5/17/11 7/6/11 85/86/11 83/97/11
f 4/3/10 8/5/10 86/83/10 82/81/10
f 7/6/12 2/2/12 80/82/12 85/86/12
f 8/5/10 6/20/10 84/98/10 86/83/10
f 9/12/13 15/18/13 93/96/13 87/92/13
f 6/20/10 16/9/10 94/87/10 84/98/10
f 11/13/14 9/12/14 87/92/14 89/91/14
f 10/11/10 12/14/10 90/90/10 88/88/10
f 13/15/13 11/13/13 89/91/13 91/94/13
f 12/14/10 14/16/10 92/93/10 90/90/10
f 15/18/13 5/17/13 83/97/13 93/96/13
f 16/9/10 10/11/10 88/88/10 94/87/10
f 21/21/13 13/15/13 91/94/13 99/100/13
f 14/16/10 22/22/10 100/99/10 92/93/10
f 23/23/15 21/21/15 99/100/15 101/102/15
f 22/22/10 24/24/10 102/101/10 100/99/10
f 25/25/13 23/23/13 101/102/13 103/104/13
f 24/24/10 26/26/10 104/103/10 102/101/10
f 28/40/16 40/39/16 118/118/16 106/117/16
f 26/26/10 32/27/10 110/105/10 104/103/10
f 30/38/17 38/37/17 116/116/17 108/115/17
f 29/34/18 35/31/18 113/108/18 107/113/18
f 27/32/19 37/33/19 115/111/19 105/110/19
f 32/27/20 39/29/20 117/106/20 110/105/20
f 33/36/21 36/35/21 114/112/21 111/114/21
f 34/30/22 25/25/22 103/104/22 112/109/22
f 35/31/23 34/30/23 112/109/23 113/108/23
f 36/35/24 29/34/24 107/113/24 114/112/24
f 37/33/25 30/38/25 108/115/25 115/111/25
f 38/37/26 33/36/26 111/114/26 116/116/26
f 39/29/27 28/40/27 106/117/27 117/106/27
f 40/39/28 27/32/28 105/110/28 118/118/28
f 1/1/29 41/42/29 119/119/29 79/79/29
f 42/41/10 3/4/10 81/80/10 120/120/10
f 45/46/30 43/57/30 121/133/30 123/122/30
f 46/43/10 42/41/10 120/120/10 124/121/10
f 41/42/31 45/46/31 123/122/31 119/119/31
f 44/58/10 46/43/10 124/121/10 122/136/10
f 53/56/13 47/52/13 125/128/13 131/134/13
f 54/47/10 44/58/10 122/136/10 132/125/10
f 47/52/32 49/51/32 127/129/32 125/128/32
f 50/50/10 48/48/10 126/127/10 128/130/10
f 49/51/13 51/54/13 129/131/13 127/129/13
f 52/53/10 50/50/10 128/130/10 130/132/10
f 43/57/13 53/56/13 131/134/13 121/133/13
f 48/48/10 54/47/10 132/125/10 126/127/10
f 51/54/13 59/60/13 137/137/13 129/131/13
f 60/59/10 52/53/10 130/132/10 138/138/10
f 59/60/15 61/62/15 139/139/15 137/137/15
f 62/61/10 60/59/10 138/138/10 140/140/10
f 61/62/13 63/64/13 141/141/13 139/139/13
f 64/63/10 62/61/10 140/140/10 142/142/10
f 78/78/16 66/77/16 144/156/16 156/155/16
f 70/65/10 64/63/10 142/142/10 148/143/10
f 76/76/17 68/75/17 146/154/17 154/153/17
f 73/68/18 67/73/18 145/150/18 151/147/18
f 75/71/19 65/70/19 143/148/19 153/149/19
f 77/66/20 70/65/20 148/143/20 155/145/20
f 74/72/21 71/74/21 149/152/21 152/151/21
f 63/64/22 72/69/22 150/146/22 141/141/22
f 72/69/23 73/68/23 151/147/23 150/146/23
f 67/73/24 74/72/24 152/151/24 145/150/24
f 68/75/25 75/71/25 153/149/25 146/154/25
f 71/74/26 76/76/26 154/153/26 149/152/26
f 66/77/27 77/66/27 155/145/27 144/156/27
f 65/70/28 78/78/28 156/155/28 143/148/28
f 18/8/2 17/7/2 95/85/2 96/84/2
f 20/10/3 98/89/3 97/95/3 19/19/3
f 20/10/13 18/8/13 96/84/13 98/89/13
f 19/19/10 97/95/10 95/85/10 17/7/10
f 57/55/10 55/45/10 133/123/10 135/135/10
f 58/49/13 136/126/13 134/124/13 56/44/13
f 58/49/2 57/55/2 135/135/2 136/126/2
f 56/44/3 134/124/3 133/123/3 55/45/3
o 3d_glasses_red_Plane.001
v 0.731508 -0.291455 -0.022500
v 0.731508 0.688537 -0.022500
v 2.493728 -0.291455 -0.022500
v 2.493728 0.688537 -0.022500
v 0.731508 -0.291455 -0.027500
v 0.731508 0.688537 -0.027500
v 2.493728 -0.291455 -0.027500
v 2.493728 0.688537 -0.027500
vt 1.000000 0.666667
vt 1.000000 0.333333
vt 1.000000 0.333333
vt 1.000000 0.666667
vt 1.000000 0.666667
vt 1.000000 0.666667
vt 1.000000 0.333333
vt 1.000000 0.333333
vn 0.0000 -0.0000 1.0000
vn 0.0000 0.0000 -1.0000
usemtl 3d_glasses_red
s off
f 158/157/33 157/158/33 159/159/33 160/160/33
f 162/161/34 164/162/34 163/163/34 161/164/34
o 3d_glasses_cyan_Plane.002
v -0.731508 -0.291455 -0.022500
v -0.731508 0.688537 -0.022500
v -2.493728 -0.291455 -0.022500
v -2.493728 0.688537 -0.022500
v -0.731508 -0.291455 -0.027500
v -0.731508 0.688537 -0.027500
v -2.493728 -0.291455 -0.027500
v -2.493728 0.688537 -0.027500
vt 1.000000 0.666667
vt 1.000000 0.666667
vt 1.000000 0.333333
vt 1.000000 0.333333
vt 1.000000 0.666667
vt 1.000000 0.333333
vt 1.000000 0.333333
vt 1.000000 0.666667
vn 0.0000 -0.0000 1.0000
vn 0.0000 0.0000 -1.0000
usemtl 3d_glasses_cyan
s off
f 166/165/35 168/166/35 167/167/35 165/168/35
f 170/169/36 169/170/36 171/171/36 172/172/36
